<?xml version="1.0" encoding="UTF-8" standalone="no"?>
<!-- Created with Inkscape (http://www.inkscape.org/) -->

<svg
   width="512"
   height="512"
   viewBox="0 0 512 512"
   version="1.1"
   id="svg1"
   inkscape:version="1.3.2 (091e20ef0f, 2023-11-25, custom)"
   sodipodi:docname="logo_white.svg"
   xmlns:inkscape="http://www.inkscape.org/namespaces/inkscape"
   xmlns:sodipodi="http://sodipodi.sourceforge.net/DTD/sodipodi-0.dtd"
   xmlns="http://www.w3.org/2000/svg"
   xmlns:svg="http://www.w3.org/2000/svg">
  <sodipodi:namedview
     id="namedview1"
     pagecolor="#505050"
     bordercolor="#ffffff"
     borderopacity="1"
     inkscape:showpageshadow="0"
     inkscape:pageopacity="0"
     inkscape:pagecheckerboard="1"
     inkscape:deskcolor="#505050"
     inkscape:document-units="px"
     inkscape:zoom="1.4142136"
     inkscape:cx="185.96908"
     inkscape:cy="254.55844"
     inkscape:window-width="1920"
     inkscape:window-height="1008"
     inkscape:window-x="0"
     inkscape:window-y="0"
     inkscape:window-maximized="1"
     inkscape:current-layer="layer1" />
  <defs
     id="defs1">
    <inkscape:path-effect
       effect="mirror_symmetry"
       start_point="47.107271,-269.57271"
       end_point="380.22094,-269.57271"
       center_point="213.66411,-269.57271"
       id="path-effect8"
       is_visible="true"
       lpeversion="1.2"
       lpesatellites="#path8"
       mode="vertical"
       discard_orig_path="false"
       fuse_paths="false"
       oposite_fuse="false"
       split_items="true"
       split_open="false"
       link_styles="false" />
  </defs>
  <g
     inkscape:label="Layer 1"
     inkscape:groupmode="layer"
     id="layer1">
    <g
       id="g8"
       transform="matrix(1.5351377,0,0,1.5351377,-136.99532,-185.85576)"
       style="fill:#ffffff">
      <path
         id="text1"
         style="font-style:normal;font-variant:normal;font-weight:normal;font-stretch:normal;font-size:533.334px;font-family:Monospace;-inkscape-font-specification:Monospace;fill:#ffffff;stroke-width:1"
         d="m 255.87695,162.55272 v 0.0254 c -10.85616,0.97273 -20.14007,3.15776 -27.79297,6.60157 -10.66666,4.79999 -18.48902,11.28902 -23.4668,19.46679 -5.15554,8 -7.73242,17.1557 -7.73242,27.4668 0,10.31111 2.93217,19.9119 8.79883,28.80078 5.68888,8.88889 14.40144,15.37791 26.13477,19.4668 -7.46667,1.95556 -13.4247,5.51046 -17.86914,10.66602 -4.44444,4.97777 -7.73191,10.66642 -9.86524,17.06641 -2.31111,6.39999 -3.82209,12.62156 -4.5332,18.66602 -0.71111,5.86664 -1.06836,10.66705 -1.06836,14.40039 v 12.26757 c 0,3.37778 1.15569,6.22209 3.4668,8.53321 2.3111,2.31111 5.15543,3.46679 8.5332,3.46679 3.73334,0 6.75725,-1.06783 9.06836,-3.20118 2.13333,-2.3111 3.19922,-5.24328 3.19922,-8.79882 v -8 c 0,-4.44444 0.35725,-9.68994 1.06836,-15.73438 0.53333,-6.04444 2.04236,-11.99856 4.53125,-17.86523 2.48888,-5.86667 6.57869,-10.66706 12.26757,-14.40038 3.9391,-2.79549 9.08209,-4.57392 15.38282,-5.3711 6.30072,0.79718 11.44371,2.57561 15.38281,5.3711 5.68887,3.73332 9.77673,8.53371 12.26562,14.40038 2.4889,5.86667 3.99987,11.82079 4.53321,17.86523 0.7111,6.04444 1.06836,11.28994 1.06836,15.73438 v 8 c 0,3.55555 1.0659,6.48773 3.19923,8.79882 2.3111,2.13334 5.33307,3.20118 9.06639,3.20118 3.37778,0 6.2221,-1.15568 8.53321,-3.46679 2.31111,-2.31111 3.46679,-5.15543 3.46679,-8.53321 V 325.1797 c 0,-3.73334 -0.35529,-8.53374 -1.06639,-14.40039 -0.71112,-6.04445 -2.22211,-12.26603 -4.53321,-18.66602 -2.13333,-6.39999 -5.42274,-12.08863 -9.86719,-17.06641 -4.44444,-5.15556 -10.40053,-8.71046 -17.86719,-10.66602 11.73332,-4.08889 20.4459,-10.57791 26.13477,-19.4668 5.86667,-8.88888 8.79883,-18.48967 8.79883,-28.80078 0,-10.3111 -2.57687,-19.4668 -7.73242,-27.4668 -4.97776,-8.17777 -12.80015,-14.6668 -23.4668,-19.46679 -7.6529,-3.44381 -16.93682,-5.62884 -27.79297,-6.60157 v -0.0254 c -0.0418,0.004 -0.0813,0.01 -0.12304,0.0137 -0.0418,-0.004 -0.0813,-0.01 -0.12306,-0.0137 z M 256,185.83788 c 5.67568,0.7066 10.5586,1.80907 14.58203,3.3418 7.46664,2.66666 12.71215,6.48903 15.73437,11.46679 3.02223,4.97778 4.53321,10.75621 4.53321,17.33399 0,11.37777 -4.62275,19.99857 -13.86719,25.86523 -5.79102,3.74713 -12.7979,6.2792 -20.98242,7.63282 -8.18457,-1.35362 -15.19139,-3.88568 -20.98243,-7.63282 -9.24443,-5.86666 -13.86718,-14.48746 -13.86718,-25.86523 0,-6.57778 1.51098,-12.35621 4.5332,-17.33399 3.02222,-4.97776 8.26771,-8.80013 15.73438,-11.46679 4.02341,-1.53273 8.90634,-2.6352 14.58203,-3.3418 z" />
      <path
         d="m 270.60298,-245.29927 q -19.97565,0 -35.95617,-3.72879 -15.71418,-3.99513 -27.43323,-9.05563 -2.92976,-1.33171 -5.32684,-4.26147 -2.13074,-3.1961 -2.13074,-6.65855 0,-4.52782 2.92977,-7.72392 2.92976,-3.46245 7.99026,-3.46245 2.66342,0 5.06049,1.06537 9.05563,3.99513 22.10639,7.45758 13.3171,3.46244 30.36299,3.46244 13.3171,0 23.70444,-2.66342 10.65368,-2.92976 16.77955,-9.58831 6.12586,-6.92489 6.12586,-18.3776 0,-8.52294 -6.12586,-13.58344 -6.12587,-5.32684 -16.24687,-8.78929 -10.12099,-3.46244 -22.37273,-6.3922 -11.98539,-2.92977 -23.97078,-6.39221 -11.98539,-3.72879 -22.10638,-9.58831 -10.121,-5.85953 -16.24687,-14.91516 -6.12586,-9.32197 -6.12586,-23.43809 0,-14.91516 7.72392,-27.16689 7.99026,-12.51807 23.43809,-19.97565 15.44784,-7.45758 37.82057,-7.45758 15.71418,0 29.03128,2.39708 13.3171,2.39708 23.97078,6.39221 2.92976,1.06537 5.0605,3.46245 2.39708,2.39707 2.39708,7.19123 0,3.99513 -2.92977,7.72392 -2.66342,3.46245 -7.72392,3.46245 -1.06536,0 -2.13073,-0.26635 -1.06537,-0.53268 -2.13074,-0.79902 -9.05563,-3.19611 -19.97565,-5.0605 -10.65368,-2.13074 -22.90541,-2.13074 -20.24199,0 -33.82544,7.72392 -13.58344,7.72392 -13.58344,22.63907 0,9.85466 6.12587,15.71418 6.12586,5.85953 16.24686,9.32197 10.121,3.46245 22.10639,6.39221 11.98539,2.66342 23.97078,6.12587 11.98539,3.46244 22.10638,9.32197 10.121,5.59318 16.24687,15.18149 6.12586,9.32197 6.12586,24.50347 0,14.91515 -8.52294,26.90054 -8.2566,11.71905 -23.70444,18.3776 -15.18149,6.65855 -35.95617,6.65855 z"
         id="text2"
         style="font-size:266.342px;font-family:'Varela Round';-inkscape-font-specification:'Varela Round';stroke-width:0.49939;fill:#ffffff"
         transform="matrix(0,1.0012215,-0.99877997,0,-13.243779,73.902998)"
         aria-label="S"
         inkscape:path-effect="#path-effect8"
         inkscape:original-d="m 270.60298,-245.29927 q -19.97565,0 -35.95617,-3.72879 -15.71418,-3.99513 -27.43323,-9.05563 -2.92976,-1.33171 -5.32684,-4.26147 -2.13074,-3.1961 -2.13074,-6.65855 0,-4.52782 2.92977,-7.72392 2.92976,-3.46245 7.99026,-3.46245 2.66342,0 5.06049,1.06537 9.05563,3.99513 22.10639,7.45758 13.3171,3.46244 30.36299,3.46244 13.3171,0 23.70444,-2.66342 10.65368,-2.92976 16.77955,-9.58831 6.12586,-6.92489 6.12586,-18.3776 0,-8.52294 -6.12586,-13.58344 -6.12587,-5.32684 -16.24687,-8.78929 -10.12099,-3.46244 -22.37273,-6.3922 -11.98539,-2.92977 -23.97078,-6.39221 -11.98539,-3.72879 -22.10638,-9.58831 -10.121,-5.85953 -16.24687,-14.91516 -6.12586,-9.32197 -6.12586,-23.43809 0,-14.91516 7.72392,-27.16689 7.99026,-12.51807 23.43809,-19.97565 15.44784,-7.45758 37.82057,-7.45758 15.71418,0 29.03128,2.39708 13.3171,2.39708 23.97078,6.39221 2.92976,1.06537 5.0605,3.46245 2.39708,2.39707 2.39708,7.19123 0,3.99513 -2.92977,7.72392 -2.66342,3.46245 -7.72392,3.46245 -1.06536,0 -2.13073,-0.26635 -1.06537,-0.53268 -2.13074,-0.79902 -9.05563,-3.19611 -19.97565,-5.0605 -10.65368,-2.13074 -22.90541,-2.13074 -20.24199,0 -33.82544,7.72392 -13.58344,7.72392 -13.58344,22.63907 0,9.85466 6.12587,15.71418 6.12586,5.85953 16.24686,9.32197 10.121,3.46245 22.10639,6.39221 11.98539,2.66342 23.97078,6.12587 11.98539,3.46244 22.10638,9.32197 10.121,5.59318 16.24687,15.18149 6.12586,9.32197 6.12586,24.50347 0,14.91515 -8.52294,26.90054 -8.2566,11.71905 -23.70444,18.3776 -15.18149,6.65855 -35.95617,6.65855 z" />
      <path
         transform="matrix(0,1.0012215,0.99877997,0,525.24387,73.902998)"
         id="path8"
         d="m 270.60298,-245.29927 q -19.97565,0 -35.95617,-3.72879 -15.71418,-3.99513 -27.43323,-9.05563 -2.92976,-1.33171 -5.32684,-4.26147 -2.13074,-3.1961 -2.13074,-6.65855 0,-4.52782 2.92977,-7.72392 2.92976,-3.46245 7.99026,-3.46245 2.66342,0 5.06049,1.06537 9.05563,3.99513 22.10639,7.45758 13.3171,3.46244 30.36299,3.46244 13.3171,0 23.70444,-2.66342 10.65368,-2.92976 16.77955,-9.58831 6.12586,-6.92489 6.12586,-18.3776 0,-8.52294 -6.12586,-13.58344 -6.12587,-5.32684 -16.24687,-8.78929 -10.12099,-3.46244 -22.37273,-6.3922 -11.98539,-2.92977 -23.97078,-6.39221 -11.98539,-3.72879 -22.10638,-9.58831 -10.121,-5.85953 -16.24687,-14.91516 -6.12586,-9.32197 -6.12586,-23.43809 0,-14.91516 7.72392,-27.16689 7.99026,-12.51807 23.43809,-19.97565 15.44784,-7.45758 37.82057,-7.45758 15.71418,0 29.03128,2.39708 13.3171,2.39708 23.97078,6.39221 2.92976,1.06537 5.0605,3.46245 2.39708,2.39707 2.39708,7.19123 0,3.99513 -2.92977,7.72392 -2.66342,3.46245 -7.72392,3.46245 -1.06536,0 -2.13073,-0.26635 -1.06537,-0.53268 -2.13074,-0.79902 -9.05563,-3.19611 -19.97565,-5.0605 -10.65368,-2.13074 -22.90541,-2.13074 -20.24199,0 -33.82544,7.72392 -13.58344,7.72392 -13.58344,22.63907 0,9.85466 6.12587,15.71418 6.12586,5.85953 16.24686,9.32197 10.121,3.46245 22.10639,6.39221 11.98539,2.66342 23.97078,6.12587 11.98539,3.46244 22.10638,9.32197 10.121,5.59318 16.24687,15.18149 6.12586,9.32197 6.12586,24.50347 0,14.91515 -8.52294,26.90054 -8.2566,11.71905 -23.70444,18.3776 -15.18149,6.65855 -35.95617,6.65855 z"
         style="font-size:266.342px;font-family:'Varela Round';-inkscape-font-specification:'Varela Round';stroke-width:0.49939;fill:#ffffff" />
    </g>
  </g>
</svg>
